<svg width="18" height="20" viewBox="0 0 18 20" fill="none" xmlns="http://www.w3.org/2000/svg">
<path fill-rule="evenodd" clip-rule="evenodd" d="M6.40612 17.3865V14.804C6.40611 14.1471 6.94162 13.6134 7.60511 13.609H10.0355C10.7021 13.609 11.2426 14.144 11.2426 14.804V17.3945C11.2424 17.9522 11.6921 18.408 12.2552 18.4211H13.8755C15.4907 18.4211 16.8 17.1248 16.8 15.5258V8.17926C16.7914 7.5502 16.4931 6.95948 15.9899 6.57522L10.4487 2.15608C9.47789 1.38661 8.09791 1.38661 7.12714 2.15608L1.61018 6.58324C1.10511 6.96595 0.806269 7.55765 0.800049 8.18728V15.5258C0.800049 17.1248 2.10942 18.4211 3.72461 18.4211H5.34486C5.92203 18.4211 6.38992 17.9579 6.38992 17.3865" fill="#1A1C1E"/>
<path d="M6.40612 17.3865V14.804C6.40611 14.1471 6.94162 13.6134 7.60511 13.609H10.0355C10.7021 13.609 11.2426 14.144 11.2426 14.804V14.804V17.3945C11.2424 17.9522 11.6921 18.408 12.2552 18.4211H13.8755C15.4907 18.4211 16.8 17.1248 16.8 15.5258V15.5258V8.17926C16.7914 7.5502 16.4931 6.95948 15.9899 6.57522L10.4487 2.15608C9.47789 1.38661 8.09791 1.38661 7.12714 2.15608L1.61018 6.58324C1.10511 6.96595 0.806269 7.55765 0.800049 8.18728V15.5258C0.800049 17.1248 2.10942 18.4211 3.72461 18.4211H5.34486C5.92203 18.4211 6.38992 17.9579 6.38992 17.3865V17.3865" stroke="#1A1C1E" stroke-width="1.26316" stroke-linecap="round" stroke-linejoin="round"/>
</svg>
