<svg width="16" height="19" viewBox="0 0 16 19" fill="none" xmlns="http://www.w3.org/2000/svg">
<path d="M8.10012 5.85608L7.21857 7.38851C7.02083 7.7263 7.18561 8.00642 7.57284 8.00642H8.61917C9.01464 8.00642 9.17118 8.28654 8.97344 8.62434L8.10012 10.1568" stroke="#73787E" stroke-width="1.23583" stroke-linecap="round" stroke-linejoin="round"/>
<path d="M5.05182 14.2185V13.2628C3.15688 12.1176 1.59973 9.88486 1.59973 7.51207C1.59973 3.43383 5.34842 0.237148 9.58319 1.1599C11.4452 1.57184 13.0765 2.80767 13.9251 4.51312C15.647 7.97344 13.8344 11.648 11.1733 13.2546V14.2103C11.1733 14.4492 11.2639 15.0012 10.3824 15.0012H5.84275C4.93647 15.0094 5.05182 14.6552 5.05182 14.2185Z" stroke="#73787E" stroke-width="1.23583" stroke-linecap="round" stroke-linejoin="round"/>
<path d="M5.21649 17.481C7.10319 16.9455 9.097 16.9455 10.9837 17.481" stroke="#73787E" stroke-width="1.23583" stroke-linecap="round" stroke-linejoin="round"/>
</svg>
