<svg width="14" height="18" viewBox="0 0 14 18" fill="none" xmlns="http://www.w3.org/2000/svg">
<path d="M9.83876 17.427C9.78647 17.427 9.72547 17.4183 9.67318 17.4009C7.92155 16.9041 6.08278 16.9041 4.33114 17.4009C4.00871 17.488 3.66884 17.305 3.58169 16.9826C3.48583 16.6601 3.67755 16.3203 3.99999 16.2331C5.96949 15.6754 8.04356 15.6754 10.0131 16.2331C10.3355 16.329 10.5272 16.6601 10.4313 16.9826C10.3442 17.2527 10.1002 17.427 9.83876 17.427Z" fill="#408D5A"/>
<path d="M13.281 3.79744C12.3747 1.96738 10.6231 0.616617 8.59257 0.172173C6.46622 -0.298414 4.28757 0.207032 2.62309 1.54908C0.949889 2.88241 0 4.87805 0 7.01312C0 9.27019 1.35076 11.6318 3.38997 13V13.7233C3.38126 13.9674 3.37254 14.3421 3.66884 14.6471C3.97385 14.9608 4.42701 14.9957 4.7843 14.9957H9.25488C9.72547 14.9957 10.0828 14.865 10.3268 14.6209C10.6579 14.2811 10.6492 13.8453 10.6405 13.6101V13C13.342 11.1787 15.0414 7.33556 13.281 3.79744ZM8.49671 8.38131L7.56425 10.0022C7.44225 10.2114 7.22439 10.3334 6.99781 10.3334C6.88452 10.3334 6.77123 10.3072 6.67537 10.2462C6.36164 10.0632 6.25707 9.66235 6.43136 9.35734L7.1721 8.06758H6.44007C6.00434 8.06758 5.64705 7.87586 5.45533 7.55342C5.2636 7.22227 5.28103 6.8214 5.4989 6.43796L6.43136 4.81704C6.61437 4.50332 7.01523 4.39874 7.32025 4.57304C7.63397 4.75604 7.73854 5.15691 7.56425 5.46192L6.82351 6.75168H7.55554C7.99127 6.75168 8.34857 6.9434 8.54029 7.26584C8.73201 7.59699 8.71458 8.00658 8.49671 8.38131Z" fill="#408D5A"/>
</svg>
