<svg width="14" height="18" viewBox="0 0 14 18" fill="none" xmlns="http://www.w3.org/2000/svg">
<path d="M4.05182 13.2185V12.2628C2.15688 11.1176 0.599731 8.88486 0.599731 6.51207C0.599731 2.43383 4.34842 -0.762852 8.58319 0.159901C10.4452 0.571845 12.0765 1.80767 12.9251 3.51312C14.647 6.97344 12.8344 10.648 10.1733 12.2546V13.2103C10.1733 13.4492 10.2639 14.0012 9.38236 14.0012H4.84275C3.93647 14.0094 4.05182 13.6552 4.05182 13.2185Z" fill="#1A1C1E"/>
<path d="M7.10012 4.85608L6.21857 6.38851C6.02083 6.7263 6.18561 7.00642 6.57284 7.00642H7.61917C8.01464 7.00642 8.17118 7.28654 7.97344 7.62434L7.10012 9.15677" stroke="white" stroke-width="1.23583" stroke-linecap="round" stroke-linejoin="round"/>
<path d="M4.21649 16.481C6.10319 15.9455 8.097 15.9455 9.9837 16.481" stroke="#1A1C1E" stroke-width="1.23583" stroke-linecap="round" stroke-linejoin="round"/>
</svg>
