<svg width="17" height="17" viewBox="0 0 17 17" fill="none" xmlns="http://www.w3.org/2000/svg">
<path d="M16.0001 5.89V2.485C16.0001 1.4275 15.5201 1 14.3276 1H11.2976C10.1051 1 9.62506 1.4275 9.62506 2.485V5.8825C9.62506 6.9475 10.1051 7.3675 11.2976 7.3675H14.3276C15.5201 7.375 16.0001 6.9475 16.0001 5.89Z" stroke="#73787E" stroke-width="1.3125" stroke-linecap="round" stroke-linejoin="round"/>
<path d="M16.0001 14.3275V11.2975C16.0001 10.105 15.5201 9.625 14.3276 9.625H11.2976C10.1051 9.625 9.62506 10.105 9.62506 11.2975V14.3275C9.62506 15.52 10.1051 16 11.2976 16H14.3276C15.5201 16 16.0001 15.52 16.0001 14.3275Z" stroke="#73787E" stroke-width="1.3125" stroke-linecap="round" stroke-linejoin="round"/>
<path d="M7.375 5.89V2.485C7.375 1.4275 6.895 1 5.7025 1H2.6725C1.48 1 1 1.4275 1 2.485V5.8825C1 6.9475 1.48 7.3675 2.6725 7.3675H5.7025C6.895 7.375 7.375 6.9475 7.375 5.89Z" stroke="#73787E" stroke-width="1.3125" stroke-linecap="round" stroke-linejoin="round"/>
<path d="M7.375 14.3275V11.2975C7.375 10.105 6.895 9.625 5.7025 9.625H2.6725C1.48 9.625 1 10.105 1 11.2975V14.3275C1 15.52 1.48 16 2.6725 16H5.7025C6.895 16 7.375 15.52 7.375 14.3275Z" stroke="#73787E" stroke-width="1.3125" stroke-linecap="round" stroke-linejoin="round"/>
</svg>
