<svg width="16" height="16" viewBox="0 0 16 16" fill="none" xmlns="http://www.w3.org/2000/svg">
<path d="M16.0003 5.216V1.584C16.0003 0.456 15.4883 0 14.2163 0H10.9843C9.71232 0 9.20032 0.456 9.20032 1.584V5.208C9.20032 6.344 9.71232 6.792 10.9843 6.792H14.2163C15.4883 6.8 16.0003 6.344 16.0003 5.216Z" fill="#1A1C1E"/>
<path d="M16.0003 14.216V10.984C16.0003 9.71195 15.4883 9.19995 14.2163 9.19995H10.9843C9.71232 9.19995 9.20032 9.71195 9.20032 10.984V14.216C9.20032 15.488 9.71232 16 10.9843 16H14.2163C15.4883 16 16.0003 15.488 16.0003 14.216Z" fill="#1A1C1E"/>
<path d="M6.80024 5.216V1.584C6.80024 0.456 6.28824 0 5.01624 0H1.78424C0.512244 0 0.000244141 0.456 0.000244141 1.584V5.208C0.000244141 6.344 0.512244 6.792 1.78424 6.792H5.01624C6.28824 6.8 6.80024 6.344 6.80024 5.216Z" fill="#1A1C1E"/>
<path d="M6.80024 14.216V10.984C6.80024 9.71195 6.28824 9.19995 5.01624 9.19995H1.78424C0.512244 9.19995 0.000244141 9.71195 0.000244141 10.984V14.216C0.000244141 15.488 0.512244 16 1.78424 16H5.01624C6.28824 16 6.80024 15.488 6.80024 14.216Z" fill="#1A1C1E"/>
</svg>
