<svg width="16" height="16" viewBox="0 0 16 16" fill="none" xmlns="http://www.w3.org/2000/svg">
<path d="M5.6 0H10.4C14.4 0 16 1.6 16 5.6V10.4C16 14.4 14.4 16 10.4 16H5.6C1.6 16 0 14.4 0 10.4V5.6C0 1.6 1.6 0 5.6 0Z" fill="#1A1C1E"/>
<path d="M5.25623 10.616L10.4882 5.38403" stroke="white" stroke-width="1.4" stroke-linecap="round" stroke-linejoin="round"/>
<path d="M5.58398 6.69602C6.12743 6.69602 6.56797 6.25548 6.56797 5.71204C6.56797 5.16859 6.12743 4.72803 5.58398 4.72803C5.04054 4.72803 4.59998 5.16859 4.59998 5.71204C4.59998 6.25548 5.04054 6.69602 5.58398 6.69602Z" stroke="white" stroke-width="1.4" stroke-linecap="round" stroke-linejoin="round"/>
<path d="M10.816 11.2719C11.3595 11.2719 11.8 10.8314 11.8 10.2879C11.8 9.74449 11.3595 9.30396 10.816 9.30396C10.2726 9.30396 9.83203 9.74449 9.83203 10.2879C9.83203 10.8314 10.2726 11.2719 10.816 11.2719Z" stroke="white" stroke-width="1.4" stroke-linecap="round" stroke-linejoin="round"/>
</svg>
