<svg width="16" height="16" viewBox="0 0 16 16" fill="none" xmlns="http://www.w3.org/2000/svg">
<path d="M11.3577 0H4.65032C1.73687 0 0 1.73687 0 4.65032V11.3497C0 14.2711 1.73687 16.008 4.65032 16.008H11.3497C14.2631 16.008 16 14.2711 16 11.3577V4.65032C16.008 1.73687 14.2711 0 11.3577 0ZM4.60229 5.71485C4.60229 5.06652 5.13056 4.53026 5.78688 4.53026C6.43521 4.53026 6.97147 5.05852 6.97147 5.71485C6.97147 6.36317 6.44321 6.89944 5.78688 6.89944C5.13056 6.89143 4.60229 6.36317 4.60229 5.71485ZM5.45872 11.2216C5.30664 11.2216 5.15457 11.1656 5.03451 11.0455C4.80239 10.8134 4.80239 10.4372 5.03451 10.1971L10.2771 4.95447C10.5092 4.72235 10.8934 4.72235 11.1255 4.95447C11.3577 5.18658 11.3577 5.57078 11.1255 5.80289L5.88293 11.0455C5.76287 11.1656 5.6108 11.2216 5.45872 11.2216ZM11.0215 11.4777C10.3732 11.4777 9.8369 10.9495 9.8369 10.2931C9.8369 9.64481 10.3652 9.10854 11.0215 9.10854C11.6698 9.10854 12.2061 9.6368 12.2061 10.2931C12.2061 10.9495 11.6778 11.4777 11.0215 11.4777Z" fill="#408D5A"/>
</svg>
