<svg width="18" height="18" viewBox="0 0 18 18" fill="none" xmlns="http://www.w3.org/2000/svg">
<path d="M6.6 1H11.4C15.4 1 17 2.6 17 6.6V11.4C17 15.4 15.4 17 11.4 17H6.6C2.6 17 1 15.4 1 11.4V6.6C1 2.6 2.6 1 6.6 1Z" stroke="#73787E" stroke-width="1.4" stroke-linecap="round" stroke-linejoin="round"/>
<path d="M6.25623 11.616L11.4882 6.38403" stroke="#73787E" stroke-width="1.4" stroke-linecap="round" stroke-linejoin="round"/>
<path d="M6.58398 7.69602C7.12743 7.69602 7.56797 7.25548 7.56797 6.71204C7.56797 6.16859 7.12743 5.72803 6.58398 5.72803C6.04054 5.72803 5.59998 6.16859 5.59998 6.71204C5.59998 7.25548 6.04054 7.69602 6.58398 7.69602Z" stroke="#73787E" stroke-width="1.4" stroke-linecap="round" stroke-linejoin="round"/>
<path d="M11.816 12.2719C12.3595 12.2719 12.8 11.8314 12.8 11.2879C12.8 10.7445 12.3595 10.304 11.816 10.304C11.2726 10.304 10.832 10.7445 10.832 11.2879C10.832 11.8314 11.2726 12.2719 11.816 12.2719Z" stroke="#73787E" stroke-width="1.4" stroke-linecap="round" stroke-linejoin="round"/>
</svg>
