<svg width="25" height="24" viewBox="0 0 25 24" fill="none" xmlns="http://www.w3.org/2000/svg">
<path d="M14.8718 4.99988H9.95767C8.22329 4.99988 7.83165 5.86709 7.61719 6.93942L6.82458 10.7159H18.0142L17.2216 6.93942C16.9885 5.86709 16.6062 4.99988 14.8718 4.99988Z" stroke="#73787E" stroke-width="1.3987" stroke-linecap="round" stroke-linejoin="round"/>
<path d="M19.3943 16.8796C19.4689 17.7002 18.8161 18.4088 17.9769 18.4088H16.6621C15.9068 18.4088 15.8043 18.0825 15.6644 17.6908L15.5245 17.2713C15.3287 16.7025 15.1982 16.3108 14.1911 16.3108H10.6104C9.60337 16.3108 9.45417 16.7491 9.277 17.2713L9.13714 17.6908C9.00659 18.0918 8.90401 18.4088 8.13939 18.4088H6.82461C5.98539 18.4088 5.32335 17.7002 5.40727 16.8796L5.79891 12.6182C5.90148 11.5645 6.09729 10.7067 7.93425 10.7067H16.858C18.6949 10.7067 18.8907 11.5645 18.9933 12.6182L19.3943 16.8796Z" stroke="#73787E" stroke-width="1.3987" stroke-linecap="round" stroke-linejoin="round"/>
<path d="M6.81526 8.61792H6.11591" stroke="#73787E" stroke-width="1.3987" stroke-linecap="round" stroke-linejoin="round"/>
<path d="M18.7044 8.61792H18.005" stroke="#73787E" stroke-width="1.3987" stroke-linecap="round" stroke-linejoin="round"/>
<path d="M8.21399 13.5134H10.312" stroke="#73787E" stroke-width="1.3987" stroke-linecap="round" stroke-linejoin="round"/>
<path d="M14.5081 13.5134H16.6062" stroke="#73787E" stroke-width="1.3987" stroke-linecap="round" stroke-linejoin="round"/>
</svg>
