<svg width="17" height="16" viewBox="0 0 17 16" fill="none" xmlns="http://www.w3.org/2000/svg">
<path d="M10.8718 0.999878H5.95767C4.22329 0.999878 3.83165 1.86709 3.61719 2.93942L2.82458 6.7159H14.0142L13.2216 2.93942C12.9885 1.86709 12.6062 0.999878 10.8718 0.999878Z" stroke="#1A1C1E" stroke-width="1.3987" stroke-linecap="round" stroke-linejoin="round"/>
<path d="M15.3943 12.8796C15.4689 13.7002 14.8161 14.4088 13.9769 14.4088H12.6621C11.9068 14.4088 11.8043 14.0825 11.6644 13.6908L11.5245 13.2713C11.3287 12.7025 11.1982 12.3108 10.1911 12.3108H6.61044C5.60337 12.3108 5.45417 12.7491 5.277 13.2713L5.13714 13.6908C5.00659 14.0918 4.90401 14.4088 4.13939 14.4088H2.82461C1.98539 14.4088 1.32335 13.7002 1.40727 12.8796L1.79891 8.61821C1.90148 7.56452 2.09729 6.70667 3.93425 6.70667H12.858C14.6949 6.70667 14.8907 7.56452 14.9933 8.61821L15.3943 12.8796Z" fill="#1A1C1E" stroke="#1A1C1E" stroke-width="1.3987" stroke-linecap="round" stroke-linejoin="round"/>
<path d="M2.81526 4.61792H2.11591" stroke="#1A1C1E" stroke-width="1.3987" stroke-linecap="round" stroke-linejoin="round"/>
<path d="M14.7044 4.61792H14.005" stroke="#1A1C1E" stroke-width="1.3987" stroke-linecap="round" stroke-linejoin="round"/>
<path d="M4.21399 9.51343H6.31204" stroke="white" stroke-width="1.3987" stroke-linecap="round" stroke-linejoin="round"/>
<path d="M10.5081 9.51343H12.6062" stroke="white" stroke-width="1.3987" stroke-linecap="round" stroke-linejoin="round"/>
</svg>
