<svg width="16" height="17" viewBox="0 0 16 17" fill="none" xmlns="http://www.w3.org/2000/svg">
<path d="M8.00192 3.96741V6.39871" stroke="white" stroke-width="1.2" stroke-miterlimit="10" stroke-linecap="round"/>
<path d="M8.01643 0.725586C5.32958 0.725586 3.15382 2.90135 3.15382 5.58819V7.12144C3.15382 7.61793 2.94939 8.36265 2.69384 8.78612L1.76659 10.334C1.1971 11.2904 1.59136 12.3564 2.64274 12.7069C6.13271 13.8678 9.90744 13.8678 13.3974 12.7069C14.3831 12.3783 14.8065 11.2247 14.2736 10.334L13.3463 8.78612C13.0908 8.36265 12.8863 7.61062 12.8863 7.12144V5.58819C12.879 2.91595 10.6887 0.725586 8.01643 0.725586Z" stroke="white" stroke-width="1.2" stroke-miterlimit="10" stroke-linecap="round"/>
<path d="M10.4332 13.0065C10.4332 14.3426 9.33798 15.4378 8.00186 15.4378C7.33745 15.4378 6.72415 15.1603 6.28607 14.7223C5.848 14.2842 5.57056 13.6709 5.57056 13.0065" fill="white"/>
<path d="M10.4332 13.0065C10.4332 14.3426 9.33798 15.4378 8.00186 15.4378C7.33745 15.4378 6.72415 15.1603 6.28607 14.7223C5.848 14.2842 5.57056 13.6709 5.57056 13.0065" stroke="white" stroke-width="1.2" stroke-miterlimit="10"/>
</svg>
