<svg width="18" height="13" viewBox="0 0 18 13" fill="none" xmlns="http://www.w3.org/2000/svg">
<path d="M2.77777 10.4999C2.77777 10.9714 2.96507 11.4236 3.29847 11.757C3.63187 12.0904 4.08405 12.2777 4.55555 12.2777C5.02704 12.2777 5.47923 12.0904 5.81263 11.757C6.14603 11.4236 6.33333 10.9714 6.33333 10.4999C6.33333 10.0284 6.14603 9.57627 5.81263 9.24287C5.47923 8.90947 5.02704 8.72217 4.55555 8.72217C4.08405 8.72217 3.63187 8.90947 3.29847 9.24287C2.96507 9.57627 2.77777 10.0284 2.77777 10.4999Z" stroke="#16A34A" stroke-width="1.33333" stroke-linecap="round" stroke-linejoin="round"/>
<path d="M11.6667 10.4999C11.6667 10.9714 11.854 11.4236 12.1874 11.757C12.5208 12.0904 12.9729 12.2777 13.4444 12.2777C13.9159 12.2777 14.3681 12.0904 14.7015 11.757C15.0349 11.4236 15.2222 10.9714 15.2222 10.4999C15.2222 10.0284 15.0349 9.57627 14.7015 9.24287C14.3681 8.90947 13.9159 8.72217 13.4444 8.72217C12.9729 8.72217 12.5208 8.90947 12.1874 9.24287C11.854 9.57627 11.6667 10.0284 11.6667 10.4999Z" stroke="#16A34A" stroke-width="1.33333" stroke-linecap="round" stroke-linejoin="round"/>
<path d="M2.77778 10.4999H1V5.16661M1 5.16661L2.77778 0.722168H10.7778L14.3333 5.16661M1 5.16661H14.3333M14.3333 5.16661H15.2222C15.6937 5.16661 16.1459 5.35391 16.4793 5.68731C16.8127 6.02071 17 6.47289 17 6.94439V10.4999H15.2222M11.6667 10.4999H6.33333M9 5.16661V0.722168" stroke="#16A34A" stroke-width="1.33333" stroke-linecap="round" stroke-linejoin="round"/>
</svg>
