<svg width="16" height="15" viewBox="0 0 16 15" fill="none" xmlns="http://www.w3.org/2000/svg">
<path d="M10.8 13.6004V12.2004C10.8 11.4578 10.505 10.7456 9.9799 10.2205C9.4548 9.69539 8.74261 9.40039 8 9.40039H3.8C3.05739 9.40039 2.3452 9.69539 1.8201 10.2205C1.295 10.7456 1 11.4578 1 12.2004V13.6004" stroke="#009688" stroke-width="1.5" stroke-linecap="round" stroke-linejoin="round"/>
<path d="M10.8 1.08984C11.4004 1.2455 11.9321 1.59613 12.3117 2.08669C12.6913 2.57725 12.8973 3.17997 12.8973 3.80024C12.8973 4.42052 12.6913 5.02324 12.3117 5.5138C11.9321 6.00436 11.4004 6.35498 10.8 6.51064" stroke="#009688" stroke-width="1.5" stroke-linecap="round" stroke-linejoin="round"/>
<path d="M14.9999 13.6002V12.2002C14.9995 11.5798 14.793 10.9772 14.4129 10.4868C14.0328 9.99651 13.5006 9.64631 12.8999 9.49121" stroke="#009688" stroke-width="1.5" stroke-linecap="round" stroke-linejoin="round"/>
<path d="M5.90008 6.6C7.44648 6.6 8.70008 5.3464 8.70008 3.8C8.70008 2.2536 7.44648 1 5.90008 1C4.35369 1 3.10008 2.2536 3.10008 3.8C3.10008 5.3464 4.35369 6.6 5.90008 6.6Z" fill="#009688" stroke="#009688" stroke-width="1.5" stroke-linecap="round" stroke-linejoin="round"/>
</svg>
