<svg width="16" height="16" viewBox="0 0 16 16" fill="none" xmlns="http://www.w3.org/2000/svg">
<path d="M12.0265 9.03365C11.7465 9.30698 11.5865 9.70032 11.6265 10.1203C11.6865 10.8403 12.3465 11.367 13.0665 11.367H14.3332V12.1603C14.3332 13.5403 13.2065 14.667 11.8265 14.667H4.17317C2.79317 14.667 1.6665 13.5403 1.6665 12.1603V7.67367C1.6665 6.29367 2.79317 5.16699 4.17317 5.16699H11.8265C13.2065 5.16699 14.3332 6.29367 14.3332 7.67367V8.63367H12.9865C12.6132 8.63367 12.2732 8.78032 12.0265 9.03365Z" stroke="#1A1C1E" stroke-width="1.14286" stroke-linecap="round" stroke-linejoin="round"/>
<path d="M1.6665 8.27337V5.22674C1.6665 4.4334 2.15317 3.72671 2.89317 3.44671L8.1865 1.44671C9.01317 1.13337 9.89984 1.74673 9.89984 2.63339V5.16672" stroke="#1A1C1E" stroke-width="1.14286" stroke-linecap="round" stroke-linejoin="round"/>
<path d="M15.039 9.31327V10.6866C15.039 11.0533 14.7457 11.3533 14.3724 11.3666H13.0657C12.3457 11.3666 11.6857 10.84 11.6257 10.12C11.5857 9.69995 11.7457 9.30662 12.0257 9.03328C12.2724 8.77995 12.6124 8.6333 12.9857 8.6333H14.3724C14.7457 8.64663 15.039 8.94661 15.039 9.31327Z" stroke="#1A1C1E" stroke-width="1.14286" stroke-linecap="round" stroke-linejoin="round"/>
<path d="M4.6665 8H9.33317" stroke="#1A1C1E" stroke-width="1.14286" stroke-linecap="round" stroke-linejoin="round"/>
</svg>
