<svg width="15" height="17" viewBox="0 0 15 17" fill="none" xmlns="http://www.w3.org/2000/svg">
<path d="M2.51163 1H12.4884C13.3198 1 14 1.68023 14 2.51163V4.17442C14 4.77907 13.6221 5.53488 13.2442 5.91279L9.99419 8.78488C9.5407 9.16279 9.23837 9.9186 9.23837 10.5233V13.7733C9.23837 14.2267 8.93605 14.8314 8.55814 15.0581L7.5 15.7384C6.51744 16.343 5.15698 15.6628 5.15698 14.4535V10.4477C5.15698 9.9186 4.85465 9.23837 4.55233 8.86046L1.68023 5.83721C1.30233 5.4593 1 4.77907 1 4.32558V2.58721C1 1.68023 1.68023 1 2.51163 1Z" stroke="white" stroke-width="1.2" stroke-miterlimit="10" stroke-linecap="round" stroke-linejoin="round"/>
<path d="M6.69125 1.00012L2.96509 6.97105" stroke="white" stroke-width="1.2" stroke-miterlimit="10" stroke-linecap="round" stroke-linejoin="round"/>
</svg>
