<svg width="20" height="20" viewBox="0 0 20 20" fill="none" xmlns="http://www.w3.org/2000/svg">
<circle cx="10" cy="9.99998" r="6.66667" stroke="#1A1C1E" stroke-width="1.5"/>
<path d="M15.4767 5.35105C14.8736 6.00271 14.0724 6.5374 13.1393 6.91094C12.2063 7.28448 11.1681 7.48616 10.1105 7.49931C9.05301 7.51247 8.00649 7.33672 7.05742 6.98658C6.10835 6.63645 5.28398 6.12198 4.6524 5.48568" stroke="#1A1C1E" stroke-width="1.5"/>
<path d="M15.4767 14.6489C14.8736 13.9973 14.0724 13.4626 13.1393 13.0891C12.2063 12.7155 11.1681 12.5138 10.1105 12.5007C9.05301 12.4875 8.00649 12.6633 7.05742 13.0134C6.10835 13.3635 5.28398 13.878 4.6524 14.5143" stroke="#1A1C1E" stroke-width="1.5"/>
<path d="M10 3.33331V16.6666" stroke="#1A1C1E" stroke-width="1.5"/>
<path d="M16.6667 10H3.33334" stroke="#1A1C1E" stroke-width="1.5"/>
</svg>
