<svg width="13" height="12" viewBox="0 0 13 12" fill="none" xmlns="http://www.w3.org/2000/svg">
<path d="M7.0061 0.640815L10.5866 2.57132C11.0046 2.79682 11.0046 3.44032 10.5866 3.66582L7.0061 5.59632C6.6871 5.76682 6.3131 5.76682 5.9941 5.59632L2.4136 3.66582C1.9956 3.44032 1.9956 2.79682 2.4136 2.57132L5.9941 0.640815C6.3131 0.470314 6.6871 0.470314 7.0061 0.640815Z" fill="#717171" stroke="#717171" stroke-width="0.825001" stroke-linecap="round" stroke-linejoin="round"/>
<path d="M1.8855 4.96952L5.213 6.63602C5.6255 6.84502 5.8895 7.26852 5.8895 7.73052V10.8765C5.8895 11.333 5.411 11.6245 5.004 11.421L1.6765 9.75452C1.264 9.54552 1 9.12202 1 8.66002V5.51402C1 5.05752 1.4785 4.76602 1.8855 4.96952Z" fill="#717171" stroke="#717171" stroke-width="0.825001" stroke-linecap="round" stroke-linejoin="round"/>
<path d="M11.1144 4.96952L7.78685 6.63602C7.37435 6.84502 7.11035 7.26852 7.11035 7.73052V10.8765C7.11035 11.333 7.58885 11.6245 7.99585 11.421L11.3234 9.75452C11.7359 9.54552 11.9999 9.12202 11.9999 8.66002V5.51402C11.9999 5.05752 11.5214 4.76602 11.1144 4.96952Z" fill="#717171" stroke="#717171" stroke-width="0.825001" stroke-linecap="round" stroke-linejoin="round"/>
</svg>
