<svg width="16" height="16" viewBox="0 0 16 16" fill="none" xmlns="http://www.w3.org/2000/svg">
<path d="M9.1331 1.15023L13.3396 3.41825C13.8307 3.68318 13.8307 4.43918 13.3396 4.70411L9.1331 6.97213C8.75833 7.17244 8.31894 7.17244 7.94417 6.97213L3.73767 4.70411C3.24659 4.43918 3.24659 3.68318 3.73767 3.41825L7.94417 1.15023C8.31894 0.949923 8.75833 0.949923 9.1331 1.15023Z" stroke="#CC8600" stroke-width="1.5" stroke-linecap="round" stroke-linejoin="round"/>
<path d="M2.04032 7.31284L5.94958 9.2707C6.4342 9.51624 6.74436 10.0138 6.74436 10.5566V14.2526C6.74436 14.7889 6.1822 15.1314 5.70404 14.8923L1.79478 12.9344C1.31016 12.6889 1 12.1913 1 11.6486V7.95254C1 7.41622 1.56216 7.07376 2.04032 7.31284Z" stroke="#CC8600" stroke-width="1.5" stroke-linecap="round" stroke-linejoin="round"/>
<path d="M13.9597 7.31284L10.0505 9.2707C9.56583 9.51624 9.25568 10.0138 9.25568 10.5566V14.2526C9.25568 14.7889 9.81784 15.1314 10.296 14.8923L14.2053 12.9344C14.6899 12.6889 15 12.1913 15 11.6486V7.95254C15 7.41622 14.4379 7.07376 13.9597 7.31284Z" stroke="#CC8600" stroke-width="1.5" stroke-linecap="round" stroke-linejoin="round"/>
</svg>
