<svg width="17" height="16" viewBox="0 0 17 16" fill="none" xmlns="http://www.w3.org/2000/svg">
<path d="M7.668 13.988C8.98681 13.988 10.276 13.5969 11.3725 12.8642C12.4691 12.1315 13.3237 11.0901 13.8284 9.87172C14.3331 8.6533 14.4652 7.31258 14.2079 6.01912C13.9506 4.72565 13.3155 3.53753 12.383 2.60499C11.4505 1.67246 10.2623 1.03739 8.96886 0.780104C7.6754 0.522818 6.33469 0.654867 5.11627 1.15955C3.89785 1.66424 2.85645 2.51889 2.12376 3.61544C1.39107 4.71199 1 6.00118 1 7.31998C1 9.08845 1.70252 10.7845 2.95301 12.035C4.2035 13.2855 5.89954 13.988 7.668 13.988Z" stroke="#223322" stroke-opacity="0.4" stroke-linecap="round" stroke-linejoin="round"/>
<path d="M15.696 15.348L13.634 13.286" stroke="#223322" stroke-opacity="0.4" stroke-linecap="round" stroke-linejoin="round"/>
</svg>
