<svg width="14" height="16" viewBox="0 0 14 16" fill="none" xmlns="http://www.w3.org/2000/svg">
<path d="M1 6.07292V9.91958C1 11.3329 1 11.3329 2.33333 12.2329L6 14.3529C6.55333 14.6729 7.45333 14.6729 8 14.3529L11.6667 12.2329C13 11.3329 13 11.3329 13 9.92625V6.07292C13 4.66625 13 4.66625 11.6667 3.76625L8 1.64625C7.45333 1.32625 6.55333 1.32625 6 1.64625L2.33333 3.76625C1 4.66625 1 4.66625 1 6.07292Z" stroke="#1A1C1E" stroke-width="1.5" stroke-linecap="round" stroke-linejoin="round"/>
<path d="M7 9.99902C8.10457 9.99902 9 9.10359 9 7.99902C9 6.89445 8.10457 5.99902 7 5.99902C5.89543 5.99902 5 6.89445 5 7.99902C5 9.10359 5.89543 9.99902 7 9.99902Z" stroke="#1A1C1E" stroke-width="1.5" stroke-linecap="round" stroke-linejoin="round"/>
</svg>
