<svg width="14" height="14" viewBox="0 0 14 14" fill="none" xmlns="http://www.w3.org/2000/svg">
<path d="M12.25 3.48844C10.3075 3.29594 8.35333 3.19678 6.405 3.19678C5.25 3.19678 4.095 3.25511 2.94 3.37178L1.75 3.48844" stroke="#1A1C1E" stroke-width="1.01111" stroke-linecap="round" stroke-linejoin="round"/>
<path d="M4.95831 2.899L5.08665 2.13484C5.17998 1.58067 5.24998 1.1665 6.23581 1.1665H7.76415C8.74998 1.1665 8.82581 1.604 8.91331 2.14067L9.04165 2.899" stroke="#1A1C1E" stroke-width="1.01111" stroke-linecap="round" stroke-linejoin="round"/>
<path d="M10.9957 5.33154L10.6165 11.2057C10.5524 12.1215 10.4999 12.8332 8.87236 12.8332H5.12736C3.49986 12.8332 3.44736 12.1215 3.3832 11.2057L3.00403 5.33154" stroke="#1A1C1E" stroke-width="1.01111" stroke-linecap="round" stroke-linejoin="round"/>
<path d="M6.02588 9.625H7.96838" stroke="#1A1C1E" stroke-width="1.01111" stroke-linecap="round" stroke-linejoin="round"/>
<path d="M5.54169 7.2915H8.45835" stroke="#1A1C1E" stroke-width="1.01111" stroke-linecap="round" stroke-linejoin="round"/>
</svg>
