<svg width="13" height="12" viewBox="0 0 13 12" fill="none" xmlns="http://www.w3.org/2000/svg">
<path d="M8.51214 6.00274C8.51214 7.11567 7.6128 8.01501 6.49987 8.01501C5.38695 8.01501 4.48761 7.11567 4.48761 6.00274C4.48761 4.88981 5.38695 3.99048 6.49987 3.99048C7.6128 3.99048 8.51214 4.88981 8.51214 6.00274Z" stroke="#1A1C1E" stroke-linecap="round" stroke-linejoin="round"/>
<path d="M6.5 10.6513C8.48416 10.6513 10.3334 9.48212 11.6206 7.45862C12.1265 6.66608 12.1265 5.33394 11.6206 4.5414C10.3334 2.51789 8.48416 1.34875 6.5 1.34875C4.51584 1.34875 2.66658 2.51789 1.37941 4.5414C0.873531 5.33394 0.873531 6.66608 1.37941 7.45862C2.66658 9.48212 4.51584 10.6513 6.5 10.6513Z" stroke="#1A1C1E" stroke-linecap="round" stroke-linejoin="round"/>
</svg>
